<svg xmlns="http://www.w3.org/2000/svg"  viewBox="0 0 32 32">
<path d="M28.25 6h-24.5c-0.969 0-1.744 0.781-1.75 1.75v0 16.5c0.013 0.969 0.781 1.75 1.75 1.75h24.5c0.975 0 1.75-0.794 1.75-1.769v0-16.462c0-0.975-0.775-1.769-1.75-1.769zM4.819 8h22.356c0.431 0 0.756 0.319 0.819 0.75v1.25h-23.994v-1.269c0.063-0.425 0.394-0.731 0.819-0.731zM27.181 24h-22.363c-0.431 0-0.756-0.306-0.819-0.731v-7.269h24v7.25c-0.063 0.431-0.394 0.75-0.819 0.75z"></path>
<path d="M6 19h12v1h-12v-1z"></path>
<path d="M6 21h6v1h-6v-1z"></path>
<path d="M22 19h4v3h-4v-3z"></path>
</svg>