<svg xmlns="http://www.w3.org/2000/svg" viewBox="0 0 32 32">
<path d="M7.769 25h9.544c0.9 0 0.9 0.006 1.331 0.325s5.356 3.675 5.356 3.675v-4h0.231c2.637 0 4.769-1.988 4.769-4.462v-13.056c0-2.475-2.137-4.481-4.769-4.481h-16.462c-2.631 0-4.769 2.006-4.769 4.481v13.056c0 2.475 2.138 4.462 4.769 4.462zM22.006 12c1.106 0 2 0.894 2 2s-0.894 2-2 2c-1.106 0-2-0.894-2-2s0.894-2 2-2zM16.006 12c1.106 0 2 0.894 2 2s-0.894 2-2 2c-1.106 0-2-0.894-2-2s0.894-2 2-2zM10.006 12c1.106 0 2 0.894 2 2s-0.894 2-2 2c-1.106 0-2-0.894-2-2s0.894-2 2-2z"></path>
</svg>