<svg xmlns="http://www.w3.org/2000/svg"  viewBox="0 0 32 32">
<path d="M27.675 6.225l-1.9-1.9c-0.438-0.431-1.137-0.431-1.569 0l-1.988 1.987 3.469 3.469 1.988-1.981c0.431-0.444 0.431-1.144 0-1.575z"></path>
<path d="M21.631 6.906l-10.75 11.094-0.881 4 4-0.881 11.037-10.813z"></path>
<path d="M24 16v9.375c0 0.319-0.244 0.631-0.575 0.631s-16.813-0.006-16.813-0.006c-0.35 0-0.612-0.337-0.612-0.625s0-16.75 0-16.75c0-0.313 0.294-0.625 0.662-0.625h9.337l2-2h-12.537c-0.813 0-1.463 0.644-1.463 1.456v19.081c0 0.806 0.656 1.462 1.463 1.462h19.081c0.806 0 1.456-0.656 1.456-1.462v-12.537l-2 2z"></path>
</svg>