<svg xmlns="http://www.w3.org/2000/svg" viewBox="0 0 32 32">  <path d="M16 2c-2.438 0-4.725 0.625-6.719 1.712-0.725-1.031-1.925-1.712-3.281-1.712-2.206 0-4 1.794-4 4 0 1.356 0.681 2.556 1.712 3.281-1.087 1.994-1.712 4.281-1.712 6.719 0 7.731 6.269 14 14 14s14-6.269 14-14c0-7.731-6.269-14-14-14zM4 6c0-1.106 0.894-2 2-2 0.656 0 1.237 0.313 1.6 0.8-1.063 0.794-2.006 1.737-2.8 2.8-0.487-0.362-0.8-0.944-0.8-1.6zM24.488 24.488c-2.269 2.262-5.281 3.512-8.488 3.512s-6.219-1.25-8.488-3.512c-2.263-2.269-3.513-5.281-3.513-8.488s1.25-6.219 3.513-8.488c2.269-2.263 5.281-3.513 8.488-3.513s6.219 1.25 8.488 3.513c2.262 2.269 3.512 5.281 3.512 8.488s-1.25 6.219-3.512 8.488z">  </path>  <path d="M22 8c0 0-6.35 5.231-7.5 6.5s-4.5 9.5-4.5 9.5 6.4-5.144 7.5-6.5 4.5-9.5 4.5-9.5z">  </path></svg>