<svg xmlns="http://www.w3.org/2000/svg" viewBox="0 0 32 32">  <path d="M10 9.581c0 0.231-0.188 0.419-0.419 0.419h-3.156c-0.231 0-0.419-0.188-0.419-0.419v-3.156c0-0.231 0.188-0.419 0.419-0.419h3.156c0.231 0 0.419 0.188 0.419 0.419v3.156z">  </path>  <path d="M18 9.581c0 0.231-0.188 0.419-0.419 0.419h-3.156c-0.231 0-0.419-0.188-0.419-0.419v-3.156c0-0.231 0.188-0.419 0.419-0.419h3.156c0.231 0 0.419 0.188 0.419 0.419v3.156z">  </path>  <path d="M26 9.581c0 0.231-0.188 0.419-0.419 0.419h-3.156c-0.231 0-0.419-0.188-0.419-0.419v-3.156c0-0.231 0.188-0.419 0.419-0.419h3.156c0.231 0 0.419 0.188 0.419 0.419v3.156z">  </path>  <path d="M10 17.581c0 0.231-0.188 0.419-0.419 0.419h-3.156c-0.231 0-0.419-0.188-0.419-0.419v-3.156c0-0.231 0.188-0.419 0.419-0.419h3.156c0.231 0 0.419 0.188 0.419 0.419v3.156z">  </path>  <path d="M18 17.581c0 0.231-0.188 0.419-0.419 0.419h-3.156c-0.231 0-0.419-0.188-0.419-0.419v-3.156c0-0.231 0.188-0.419 0.419-0.419h3.156c0.231 0 0.419 0.188 0.419 0.419v3.156z">  </path>  <path d="M26 17.581c0 0.231-0.188 0.419-0.419 0.419h-3.156c-0.231 0-0.419-0.188-0.419-0.419v-3.156c0-0.231 0.188-0.419 0.419-0.419h3.156c0.231 0 0.419 0.188 0.419 0.419v3.156z">  </path>  <path d="M10 25.581c0 0.231-0.188 0.419-0.419 0.419h-3.156c-0.231 0-0.419-0.188-0.419-0.419v-3.156c0-0.231 0.188-0.419 0.419-0.419h3.156c0.231 0 0.419 0.188 0.419 0.419v3.156z">  </path>  <path d="M18 25.581c0 0.231-0.188 0.419-0.419 0.419h-3.156c-0.231 0-0.419-0.188-0.419-0.419v-3.156c0-0.231 0.188-0.419 0.419-0.419h3.156c0.231 0 0.419 0.188 0.419 0.419v3.156z">  </path>  <path d="M26 25.581c0 0.231-0.188 0.419-0.419 0.419h-3.156c-0.231 0-0.419-0.188-0.419-0.419v-3.156c0-0.231 0.188-0.419 0.419-0.419h3.156c0.231 0 0.419 0.188 0.419 0.419v3.156z">  </path></svg>