<svg xmlns="http://www.w3.org/2000/svg"  viewBox="0 0 32 32">
<path d="M16 2c-7.731 0-14 6.269-14 14s6.269 14 14 14 14-6.269 14-14-6.269-14-14-14zM27.144 11.531l-3.844 1.181c-0.394-0.875-0.944-1.675-1.644-2.375s-1.5-1.25-2.375-1.644l1.181-3.844c1.488 0.594 2.85 1.494 4.019 2.656 1.169 1.175 2.069 2.537 2.663 4.025zM16 22c-3.313 0-6-2.688-6-6s2.688-6 6-6 6 2.688 6 6c0 3.313-2.688 6-6 6zM7.513 7.513c1.169-1.169 2.531-2.063 4.019-2.656l1.181 3.844c-0.875 0.394-1.675 0.944-2.375 1.644s-1.25 1.5-1.644 2.375l-3.844-1.181c0.6-1.494 1.5-2.856 2.662-4.025zM4.856 20.469l3.844-1.181c0.394 0.875 0.944 1.675 1.644 2.375s1.5 1.25 2.375 1.644l-1.181 3.844c-1.488-0.594-2.85-1.494-4.019-2.656-1.169-1.175-2.069-2.538-2.663-4.025zM24.488 24.488c-1.169 1.169-2.531 2.063-4.019 2.656l-1.181-3.844c0.875-0.394 1.675-0.944 2.375-1.644s1.25-1.5 1.644-2.375l3.844 1.181c-0.6 1.494-1.5 2.856-2.663 4.025z"></path>
</svg>