<svg xmlns="http://www.w3.org/2000/svg"  viewBox="0 0 32 32">
<path d="M23 14c1.656 0 3-1.344 3-3s-1.344-3-3-3c-1.656 0-3 1.344-3 3s1.344 3 3 3z"></path>
<path d="M28.25 4h-24.5c-0.975 0-1.75 0.794-1.75 1.769v20.462c0 0.975 0.775 1.769 1.75 1.769h24.5c0.975 0 1.75-0.794 1.75-1.769v-20.462c0-0.975-0.775-1.769-1.75-1.769zM21.806 16.356c-0.188-0.219-0.475-0.387-0.8-0.387-0.319 0-0.544 0.15-0.8 0.356l-1.169 0.988c-0.244 0.175-0.438 0.294-0.719 0.294-0.269 0-0.512-0.1-0.688-0.256-0.063-0.056-0.175-0.163-0.269-0.256l-3.363-3.637c-0.25-0.287-0.625-0.469-1.044-0.469s-0.806 0.206-1.050 0.488l-7.906 9.537v-16.281c0.063-0.425 0.394-0.731 0.819-0.731h22.356c0.431 0 0.781 0.319 0.806 0.75l0.019 16.275-6.194-6.669z"></path>
</svg>