<svg  xmlns="http://www.w3.org/2000/svg"    viewBox="0 0 32 32">
<path  d="M22.929 20.243l1.414 1.414 5.657-5.657-5.657-5.657-1.414 1.414 3.243 3.243h-14.172v2h14.172z"></path>
<path  d="M24.468 24.485c-2.266 2.266-5.28 3.515-8.485 3.515s-6.219-1.248-8.486-3.515c-2.267-2.267-3.498-5.28-3.498-8.485s1.231-6.218 3.498-8.485c2.267-2.267 5.28-3.515 8.486-3.515s6.218 1.248 8.485 3.515c0.158 0.158 0.31 0.32 0.458 0.485h2.546c-2.53-3.627-6.732-6-11.489-6-7.732 0-13.983 6.269-13.983 14s6.251 14 13.983 14c4.757 0 8.959-2.373 11.489-6h-2.546c-0.148 0.165-0.3 0.327-0.459 0.485z"></path>
</svg>