<svg xmlns="http://www.w3.org/2000/svg" viewBox="0 0 32 32">  <path d="M30 12v-10h-10l3.938 3.938-4.294 4.294c-1.844-1.4-4.15-2.231-6.644-2.231-6.075 0-11 4.925-11 11s4.925 11 11 11 11-4.925 11-11c0-2.494-0.831-4.8-2.231-6.644l4.294-4.294 3.938 3.938zM18.656 24.656c-1.512 1.512-3.519 2.344-5.656 2.344s-4.144-0.831-5.656-2.344c-1.513-1.512-2.344-3.519-2.344-5.656s0.831-4.144 2.344-5.656c1.512-1.512 3.519-2.344 5.656-2.344s4.144 0.831 5.656 2.344 2.344 3.519 2.344 5.656-0.831 4.144-2.344 5.656z">  </path></svg>