<svg xmlns="http://www.w3.org/2000/svg"  viewBox="0 0 32 32">
<path d="M26 5c0 2.209-4.477 4-10 4s-10-1.791-10-4c0-2.209 4.477-4 10-4s10 1.791 10 4z"></path>
<path d="M16 27.5c5.523 0 9.5-1.791 9.5-4v-8c0 1.786-2.601 3.299-6.516 3.813-0.156 1.51-1.433 2.687-2.984 2.687s-2.827-1.177-2.984-2.687c-3.915-0.514-6.516-2.026-6.516-3.813v8c0 2.209 3.977 4 9.5 4z"></path>
<path d="M16 10c-5.523 0-10-1.791-10-4 0 0 0 2.052 0.5 2.5v6c0 1.796 2.628 3.315 6.578 3.821 0.308-1.33 1.499-2.321 2.922-2.321s2.614 0.991 2.922 2.321c3.95-0.506 6.578-2.025 6.578-3.821v-6c0.5-0.516 0.5-2.5 0.5-2.5 0 2.209-4.477 4-10 4z"></path>
<path d="M25.5 24.5c0 2.209-3.977 4-9.5 4s-9.5-1.791-9.5-4v1.5l-0.5 1c0 0.437 0.176 0.858 0.5 1.252 1.313 1.596 5.070 2.748 9.5 2.748s8.187-1.152 9.5-2.748c0.324-0.394 0.5-0.814 0.5-1.252l-0.5-1v-1.5z"></path>
</svg>