<svg xmlns="http://www.w3.org/2000/svg" viewBox="0 0 32 32">
<path d="M16.969 10.75c0 0.69-0.56 1.25-1.25 1.25s-1.25-0.56-1.25-1.25c0-0.69 0.56-1.25 1.25-1.25s1.25 0.56 1.25 1.25z"></path>
<path d="M17 21.5v-8h-3v0.5h1v7.5h-1v0.5h4v-0.5z"></path>
<path d="M16 3c-7.181 0-13 5.819-13 13s5.819 13 13 13c7.181 0 13-5.819 13-13s-5.819-13-13-13zM16 27.919c-6.569 0-11.919-5.344-11.919-11.919 0-6.569 5.344-11.919 11.919-11.919 6.569 0 11.919 5.344 11.919 11.919 0 6.569-5.35 11.919-11.919 11.919z"></path>
</svg>