<svg xmlns="http://www.w3.org/2000/svg"  viewBox="0 0 32 32">
<path d="M16 2c-2.731 0-4.938 2.344-4.938 5.219v9.656c0 2.875 2.206 5.219 4.938 5.219s4.938-2.344 4.938-5.219v-9.656c0-2.875-2.206-5.219-4.938-5.219zM19.938 16.875c0 2.325-1.769 4.219-3.938 4.219s-3.938-1.894-3.938-4.219v-9.656c0-2.325 1.769-4.219 3.938-4.219s3.938 1.894 3.938 4.219v9.656z"></path>
<path d="M22.938 12v4.981c0 3.762-3.113 6.825-6.875 6.825s-6.875-3.063-6.875-6.825v-4.981h-1.188v4.981c0 4.2 3.313 7.662 7.5 7.969v3.925h-4.563v1.125h10.063v-1.125h-4.313v-3.925c4.125-0.306 7.313-3.769 7.313-7.969v-4.981h-1.063z"></path>
</svg>