<svg xmlns="http://www.w3.org/2000/svg"  viewBox="0 0 32 32">
<path d="M16 14.875c0.619 0 1.125 0.506 1.125 1.125s-0.506 1.125-1.125 1.125-1.125-0.506-1.125-1.125 0.506-1.125 1.125-1.125zM16 14c-1.106 0-2 0.894-2 2s0.894 2 2 2c1.106 0 2-0.894 2-2s-0.894-2-2-2v0z"></path>
<path d="M8.025 14.875c0.619 0 1.125 0.506 1.125 1.125s-0.506 1.125-1.125 1.125c-0.619 0-1.125-0.506-1.125-1.125s0.506-1.125 1.125-1.125zM8.025 14c-1.106 0-2 0.894-2 2s0.894 2 2 2c1.106 0 2-0.894 2-2s-0.9-2-2-2v0z"></path>
<path d="M24 14.875c0.619 0 1.125 0.506 1.125 1.125s-0.506 1.125-1.125 1.125-1.125-0.506-1.125-1.125 0.506-1.125 1.125-1.125zM24 14c-1.106 0-2 0.894-2 2s0.894 2 2 2 2-0.894 2-2-0.894-2-2-2v0z"></path>
</svg>