<svg xmlns="http://www.w3.org/2000/svg" viewBox="0 0 32 32">  <path d="M2 23.5h17.709c0.387-0.882 1.268-1.5 2.291-1.5s1.904 0.618 2.291 1.5h5.709v2h-5.709c-0.387 0.882-1.268 1.5-2.291 1.5s-1.904-0.618-2.291-1.5h-17.709z">  </path>  <path d="M2 15h5.709c0.387-0.882 1.268-1.5 2.291-1.5s1.904 0.618 2.291 1.5h17.709v2h-17.709c-0.387 0.882-1.268 1.5-2.291 1.5s-1.904-0.618-2.291-1.5h-5.709z">  </path>  <path d="M2 6.5h17.709c0.387-0.882 1.268-1.5 2.291-1.5s1.904 0.618 2.291 1.5h5.709v2h-5.709c-0.387 0.882-1.268 1.5-2.291 1.5s-1.904-0.618-2.291-1.5h-17.709z">  </path></svg>