<svg xmlns="http://www.w3.org/2000/svg" viewBox="19 19 50 50" >  <g>  <ellipse fill="none" stroke="#2697FB" stroke-width="2" stroke-miterlimit="10" cx="44.045" cy="44.313" rx="15.809" ry="16.167"/>  <path fill="none" stroke="#2697FB" stroke-width="2" stroke-miterlimit="10" d="M36.894,47.063c0,0,0.122,7.75,6.845,7.75 c0,0,7.34,0.396,7.34-7.771"/>  <path fill="none" stroke="#2697FB" stroke-width="2" stroke-miterlimit="10" d="M24.06,49.109c-0.37-1.572-0.428-3.108-0.428-4.797 c0-11.529,9.139-20.875,20.413-20.875s20.412,9.346,20.412,20.875c0,9.678-6.439,17.816-15.175,20.182"/>  <ellipse fill="#2697FB" cx="49.912" cy="63.938" rx="1.955" ry="2"/>  <path fill="none" stroke="#2697FB" stroke-width="2" stroke-miterlimit="10" d="M64.457,41.75c0,0,2.995,0,2.995,3.438 c0,0,0.122,3.125-2.995,3.125"/>  <path fill="none" stroke="#2697FB" stroke-width="2" stroke-miterlimit="10" d="M23.449,41.75c0,0-2.996,0-2.996,3.438 c0,0-0.122,3.125,2.996,3.125"/>  </g></svg>