<svg xmlns="http://www.w3.org/2000/svg" viewBox="19 19 50 50" >  <g>  <path fill="none" stroke="#FF8C02" stroke-width="2" stroke-miterlimit="10" d="M22.016,43.547v-6.875c0,0-0.063-2.375,2.188-2.375 h39.5c0,0,2.125-0.125,2.125,2.313v6.938"/>  <path fill="none" stroke="#FF8C02" stroke-width="2" stroke-miterlimit="10" d="M65.828,36.296v6.875c0,0,0.063,2.375-2.188,2.375 h-39.5c0,0-2.125,0.125-2.125-2.312v-6.938"/>  <line fill="none" stroke="#FF8C02" stroke-width="2" stroke-miterlimit="10" x1="43.922" y1="34.297" x2="43.922" y2="65.359"/>  <path fill="none" stroke="#FF8C02" stroke-width="2" stroke-miterlimit="10" d="M24.828,45.547v17.813c0,0,0,2,2.625,2h33.188 c0,0,2.5,0.188,2.5-2.375V45.547"/>  <path fill="none" stroke="#FF8C02" stroke-width="2" stroke-miterlimit="10" d="M39.828,34.297v-3.063c0,0-0.25-1.875,1.563-1.875 h5c0,0,0.439-0.013,0.797,0.188c0.42,0.234,0.767,0.516,0.767,1.688v3.063"/>  <path fill="none" stroke="#FF8C02" stroke-width="2" stroke-miterlimit="10" d="M47.63,29.896c0,0,1.495-7.021,8.011-6.302 c0,0,8.098,0.656,2.676,10.609"/>  <path fill="none" stroke="#FF8C02" stroke-width="2" stroke-miterlimit="10" d="M28.891,26.36c0,0,6.891-7.609,11.828,2.859"/>  <path fill="none" stroke="#FF8C02" stroke-width="2" stroke-miterlimit="10" d="M22.912,32.214c0,0,7.667-8.875,16.034,1.625"/>  <path fill="none" stroke="#FF8C02" stroke-width="2" stroke-miterlimit="10" d="M31.031,34.204c0,0,0.302-2.745-3.114-2.375"/>  </g></svg>