<svg xmlns="http://www.w3.org/2000/svg" viewBox="0 0 32 32">
<path d="M29.375 7.802l-6.153-5.111-1.738 2.058 6.153 5.111 1.738-2.058zM10.45 4.682l-1.739-2.057-6.085 5.177 1.738 2.057 6.086-5.177zM16.669 10.789h-2.006v7.965l6.353 3.784 1.003-1.66-5.35-3.12v-6.97zM16 5.479c-6.688 0-12.038 5.376-12.038 11.948s5.35 11.948 12.038 11.948c6.621 0 12.038-5.376 12.038-11.948s-5.417-11.948-12.038-11.948zM16 26.72c-5.15 0-9.363-4.182-9.363-9.293s4.213-9.293 9.363-9.293c5.15 0 9.363 4.182 9.363 9.293 0 5.177-4.213 9.293-9.363 9.293z"></path>
</svg>