<?xml version="1.0" encoding="utf-8"?>
<!-- Generated by IcoMoon.io -->
<!DOCTYPE svg PUBLIC "-//W3C//DTD SVG 1.1//EN" "http://www.w3.org/Graphics/SVG/1.1/DTD/svg11.dtd">
<svg version="1.1" xmlns="http://www.w3.org/2000/svg" xmlns:xlink="http://www.w3.org/1999/xlink" width="32" height="32" viewBox="0 0 32 32">
<path d="M23.5 4v2.667h-2.5v-2.667h-10v2.667h-2.5v-2.667h-2.5v24h2.5v-2.667h2.5v2.667h10v-2.667h2.5v2.667h2.5v-24h-2.5zM11 22.667h-2.5v-2.667h2.5v2.667zM11 17.333h-2.5v-2.667h2.5v2.667zM11 12h-2.5v-2.667h2.5v2.667zM23.5 22.667h-2.5v-2.667h2.5v2.667zM23.5 17.333h-2.5v-2.667h2.5v2.667zM23.5 12h-2.5v-2.667h2.5v2.667z"></path>
</svg>
