<?xml version="1.0" encoding="utf-8"?>
<!-- Generated by IcoMoon.io -->
<!DOCTYPE svg PUBLIC "-//W3C//DTD SVG 1.1//EN" "http://www.w3.org/Graphics/SVG/1.1/DTD/svg11.dtd">
<svg version="1.1" xmlns="http://www.w3.org/2000/svg" xmlns:xlink="http://www.w3.org/1999/xlink" width="32" height="32" viewBox="0 0 32 32">
<path d="M26.667 20.667c-1.667 0-3.267-0.267-4.733-0.733-0.467-0.134-1-0.067-1.333 0.333l-2.934 2.933c-3.8-1.933-6.867-5-8.8-8.8l2.934-2.933c0.333-0.333 0.466-0.867 0.333-1.333-0.534-1.533-0.8-3.133-0.8-4.8 0-0.733-0.6-1.333-1.333-1.333h-4.667c-0.733 0-1.333 0.6-1.333 1.333 0 12.533 10.133 22.667 22.667 22.667 0.733 0 1.333-0.6 1.333-1.333v-4.667c0-0.733-0.6-1.333-1.333-1.333z"></path>
</svg>
