<?xml version="1.0" encoding="utf-8"?>
<!-- Generated by IcoMoon.io -->
<!DOCTYPE svg PUBLIC "-//W3C//DTD SVG 1.1//EN" "http://www.w3.org/Graphics/SVG/1.1/DTD/svg11.dtd">
<svg version="1.1" xmlns="http://www.w3.org/2000/svg" xmlns:xlink="http://www.w3.org/1999/xlink" width="32" height="32" viewBox="0 0 32 32">
<path d="M16 3c-5.867 0-11 0.667-11 5.333v13.333c0 2.6 2.066 4.667 4.667 4.667l-1.667 1.667v1h16v-1l-1.667-1.667c2.6 0 4.667-2.066 4.667-4.667v-13.333c0-4.667-5.133-5.333-11-5.333zM10 24c-1.133 0-2-0.867-2-2s0.867-2 2-2 2 0.866 2 2c0 1.133-0.867 2-2 2zM15 15h-7v-6h7v6zM22 24c-1.134 0-2-0.867-2-2s0.866-2 2-2 2 0.866 2 2c0 1.133-0.866 2-2 2zM24 15h-7v-6h7v6z"></path>
</svg>
