<?xml version="1.0" encoding="utf-8"?>
<!-- Generated by IcoMoon.io -->
<!DOCTYPE svg PUBLIC "-//W3C//DTD SVG 1.1//EN" "http://www.w3.org/Graphics/SVG/1.1/DTD/svg11.dtd">
<svg version="1.1" xmlns="http://www.w3.org/2000/svg" xmlns:xlink="http://www.w3.org/1999/xlink" width="32" height="32" viewBox="0 0 32 32">
<path d="M21.333 8v14.667c0 2.934-2.4 5.333-5.333 5.333s-5.333-2.4-5.333-5.333v-15.333c0-1.867 1.467-3.333 3.333-3.333s3.333 1.467 3.333 3.333v15.333c0 0.733-0.6 1.333-1.333 1.333s-1.333-0.6-1.333-1.333v-12.667h-2v12.667c0 1.866 1.467 3.333 3.333 3.333s3.333-1.467 3.333-3.333v-15.333c0-2.933-2.4-5.333-5.333-5.333s-5.333 2.4-5.333 5.333v15.333c0 4.066 3.267 7.333 7.333 7.333s7.333-3.267 7.333-7.333v-14.667h-2z"></path>
</svg>
