<?xml version="1.0" encoding="utf-8"?>
<!-- Generated by IcoMoon.io -->
<!DOCTYPE svg PUBLIC "-//W3C//DTD SVG 1.1//EN" "http://www.w3.org/Graphics/SVG/1.1/DTD/svg11.dtd">
<svg version="1.1" xmlns="http://www.w3.org/2000/svg" xmlns:xlink="http://www.w3.org/1999/xlink" width="32" height="32" viewBox="0 0 32 32">
<path d="M27.333 26c1.467 0 2.667-1.2 2.667-2.667v-16.667c0-1.467-1.2-2.667-2.667-2.667h-22.667c-1.467 0-2.667 1.2-2.667 2.667v16.667c0 1.467 1.2 2.667 2.667 2.667h-4.667c0 1.467 4 2 6 2h20c2 0 6-0.533 6-2h-4.667zM4.667 6.667h22.667v17h-22.667v-17zM16 27.167c-0.733 0-1.333-0.6-1.333-1.333s0.6-1.333 1.333-1.333 1.333 0.6 1.333 1.333c0 0.733-0.6 1.333-1.333 1.333z"></path>
</svg>
