<?xml version="1.0" encoding="utf-8"?>
<!-- Generated by IcoMoon.io -->
<!DOCTYPE svg PUBLIC "-//W3C//DTD SVG 1.1//EN" "http://www.w3.org/Graphics/SVG/1.1/DTD/svg11.dtd">
<svg version="1.1" xmlns="http://www.w3.org/2000/svg" xmlns:xlink="http://www.w3.org/1999/xlink" width="32" height="32" viewBox="0 0 32 32">
<path d="M10.67 13.53l-1.82 1.82 5.85 5.85 13-13-1.82-1.82-11.18 11.115-4.030-3.965zM26.4 16c0 5.72-4.68 10.4-10.4 10.4s-10.4-4.68-10.4-10.4 4.68-10.4 10.4-10.4c0.975 0 1.95 0.13 2.86 0.39l2.015-2.015c-1.495-0.65-3.12-0.975-4.875-0.975-7.15 0-13 5.85-13 13s5.85 13 13 13 13-5.85 13-13h-2.6z"></path>
</svg>
