<?xml version="1.0" encoding="utf-8"?>
<!-- Generated by IcoMoon.io -->
<!DOCTYPE svg PUBLIC "-//W3C//DTD SVG 1.1//EN" "http://www.w3.org/Graphics/SVG/1.1/DTD/svg11.dtd">
<svg version="1.1" xmlns="http://www.w3.org/2000/svg" xmlns:xlink="http://www.w3.org/1999/xlink" width="32" height="32" viewBox="0 0 32 32">
<path d="M16 28.979c1.426 0 2.592-1.166 2.592-2.604h-5.184c0 1.438 1.166 2.604 2.592 2.604z"></path>
<path d="M8.193 6.698l0.003 0.005-2.065-2.061-1.505 1.507 3.94 3.947c-0.635 1.187-1.003 2.541-1.003 3.971v7.16l-2.563 2.604v1.295h18.609l2.261 2.271 1.505-1.519-0.756-0.752h0.020l-18.446-18.427z"></path>
<path d="M24.438 14.067c0-3.97-2.813-7.355-6.5-8.201v-0.911c0-1.107-0.836-1.953-1.938-1.953s-1.938 0.846-1.938 1.953v0.911c-0.938 0.215-1.816 0.594-2.609 1.104l12.984 12.99v-5.893z"></path>
</svg>
