<?xml version="1.0" encoding="utf-8"?>
<!-- Generated by IcoMoon.io -->
<!DOCTYPE svg PUBLIC "-//W3C//DTD SVG 1.1//EN" "http://www.w3.org/Graphics/SVG/1.1/DTD/svg11.dtd">
<svg version="1.1" xmlns="http://www.w3.org/2000/svg" xmlns:xlink="http://www.w3.org/1999/xlink" width="32" height="32" viewBox="0 0 32 32">
<path d="M23.5 11.625h-1.25v-2.5c0-3.438-2.813-6.25-6.25-6.25s-6.25 2.813-6.25 6.25h2.375c0-2.125 1.75-3.875 3.875-3.875s3.875 1.75 3.875 3.875h-0v2.5h-11.375c-1.375 0-2.5 1.125-2.5 2.5v12.5c0 1.375 1.125 2.5 2.5 2.5h15c1.375 0 2.5-1.125 2.5-2.5v-12.5c0-1.375-1.125-2.5-2.5-2.5zM16 23c-1.375 0-2.5-1.125-2.5-2.5s1.125-2.5 2.5-2.5 2.5 1.125 2.5 2.5-1.125 2.5-2.5 2.5z"></path>
</svg>
