<?xml version="1.0" encoding="utf-8"?>
<!-- Generated by IcoMoon.io -->
<!DOCTYPE svg PUBLIC "-//W3C//DTD SVG 1.1//EN" "http://www.w3.org/Graphics/SVG/1.1/DTD/svg11.dtd">
<svg version="1.1" xmlns="http://www.w3.org/2000/svg" xmlns:xlink="http://www.w3.org/1999/xlink" width="32" height="32" viewBox="0 0 32 32">
<path d="M16.063 7.529c0.443 0 1.494 0.28 1.494 0.28 2.849 0.653 4.855 3.277 4.855 6.241v7.976l1.069 1.074h-14.962l1.069-1.074v-7.976c0-2.963 2.006-5.588 4.855-6.241 0 0 1.128-0.28 1.494-0.28zM16 3c-1.1 0-1.941 0.845-1.941 1.95v0.91c-3.688 0.845-6.471 4.225-6.471 8.19v7.15l-2.588 2.6v1.3h22v-1.3l-2.588-2.6v-7.15c0-3.965-2.782-7.345-6.471-8.19v-0.91c0-1.105-0.841-1.95-1.941-1.95v0zM18.588 26.4h-5.176c0 1.43 1.165 2.6 2.588 2.6s2.588-1.17 2.588-2.6v0z"></path>
</svg>
