<?xml version="1.0" encoding="utf-8"?>
<!-- Generated by IcoMoon.io -->
<!DOCTYPE svg PUBLIC "-//W3C//DTD SVG 1.1//EN" "http://www.w3.org/Graphics/SVG/1.1/DTD/svg11.dtd">
<svg version="1.1" xmlns="http://www.w3.org/2000/svg" xmlns:xlink="http://www.w3.org/1999/xlink" width="32" height="32" viewBox="0 0 32 32">
<path d="M20.667 8.2c1.167 0 2.1-0.933 2.1-2.1s-0.933-2.1-2.1-2.1c-1.167 0-2.1 0.933-2.1 2.1s0.933 2.1 2.1 2.1zM24.167 16.333c-3.208 0-5.833 2.625-5.833 5.833s2.625 5.833 5.833 5.833c3.208 0 5.833-2.625 5.833-5.833s-2.625-5.833-5.833-5.833zM24.167 26.25c-2.275 0-4.083-1.808-4.083-4.083s1.808-4.083 4.083-4.083c2.275 0 4.083 1.808 4.083 4.083s-1.808 4.083-4.083 4.083zM19.1 14h4.9v-2h-3.678l-2.164-3.758c-0.35-0.583-0.992-0.992-1.692-0.992-0.525 0-1.050 0.233-1.4 0.583l-4.483 4.317c-0.35 0.35-0.583 0.875-0.583 1.4 0 0.758 0.575 1.342 1.158 1.692l3.841 2.392v5.367h2v-7l-2.458-2 2.683-2.783 1.875 2.783zM7.833 16.333c-3.208 0-5.833 2.625-5.833 5.833s2.625 5.833 5.833 5.833c3.208 0 5.833-2.625 5.833-5.833s-2.625-5.833-5.833-5.833zM7.833 26.25c-2.275 0-4.083-1.808-4.083-4.083s1.808-4.083 4.083-4.083c2.275 0 4.083 1.808 4.083 4.083s-1.808 4.083-4.083 4.083z"></path>
</svg>
