<svg  xmlns="http://www.w3.org/2000/svg"    viewBox="0 0 32 32">
<path d="M5.266 25.813h0.066c2.133 0 3.999-1.189 5.332-2.656 1.333 1.467 3.199 2.673 5.332 2.673s3.999-1.208 5.332-2.675c1.333 1.467 3.199 2.659 5.331 2.659h0.066l3.203-8.674c0.133-0.333 0.066-0.728-0.067-1.061s-0.452-0.53-0.785-0.664l-2.388-0.78v-6.134c0-1.467-1.229-2.686-2.695-2.686h-3.999l-1-3.313h-5.998l-1 3.313h-3.999c-1.466 0-2.686 1.219-2.686 2.686v6.134l-2.38 0.783c-0.333 0.133-0.661 0.333-0.795 0.667s-0.197 0.656-0.064 1.055l3.192 8.674zM8 8.5h16v5.266l-8-2.6-8 2.6v-5.266z"></path>
<path d="M21.327 25.5c-3.266 2.267-7.397 2.266-10.663-0.001 0 0-3.602 4-6.665 4h1.333c1.866 0 3.665-0.733 5.332-1.6 3.332 1.733 7.331 1.733 10.663-0 1.666 0.867 3.466 1.6 5.331 1.6h1.333c-2.978 0-6.665-4-6.665-4z"></path>
</svg>