<?xml version="1.0" encoding="utf-8"?>
<!-- Generated by IcoMoon.io -->
<!DOCTYPE svg PUBLIC "-//W3C//DTD SVG 1.1//EN" "http://www.w3.org/Graphics/SVG/1.1/DTD/svg11.dtd">
<svg version="1.1" xmlns="http://www.w3.org/2000/svg" xmlns:xlink="http://www.w3.org/1999/xlink" width="32" height="32" viewBox="0 0 32 32">
<path d="M16 4c-6.6 0-12 5.4-12 12s5.4 12 12 12c1.134 0 2-0.866 2-2 0-0.533-0.2-1-0.533-1.333s-0.533-0.8-0.533-1.333c0-1.133 0.866-2 2-2h2.4c3.667 0 6.667-3 6.667-6.667-0-5.867-5.4-10.667-12-10.667zM8.667 16c-1.133 0-2-0.867-2-2s0.867-2 2-2c1.133 0 2 0.867 2 2s-0.867 2-2 2zM12.667 10.667c-1.133 0-2-0.867-2-2s0.867-2 2-2c1.133 0 2 0.867 2 2s-0.867 2-2 2zM19.333 10.667c-1.133 0-2-0.867-2-2s0.867-2 2-2c1.134 0 2 0.867 2 2s-0.866 2-2 2zM23.333 16c-1.133 0-2-0.867-2-2s0.867-2 2-2c1.134 0 2 0.867 2 2s-0.866 2-2 2z"></path>
</svg>
