<?xml version="1.0" encoding="utf-8"?>
<!-- Generated by IcoMoon.io -->
<!DOCTYPE svg PUBLIC "-//W3C//DTD SVG 1.1//EN" "http://www.w3.org/Graphics/SVG/1.1/DTD/svg11.dtd">
<svg version="1.1" xmlns="http://www.w3.org/2000/svg" xmlns:xlink="http://www.w3.org/1999/xlink" width="32" height="32" viewBox="0 0 32 32">
<path d="M16 3c-7.215 0-13 5.85-13 13s5.785 13 13 13 13-5.85 13-13c0-7.15-5.85-13-13-13zM16 26.4c-5.72 0-10.4-4.68-10.4-10.4s4.68-10.4 10.4-10.4 10.4 4.68 10.4 10.4c0 5.72-4.68 10.4-10.4 10.4zM20.55 14.7c1.105 0 1.95-0.845 1.95-1.95s-0.845-1.95-1.95-1.95c-1.105 0-1.95 0.845-1.95 1.95s0.845 1.95 1.95 1.95zM11.45 14.7c1.105 0 1.95-0.845 1.95-1.95s-0.845-1.95-1.95-1.95c-1.105 0-1.95 0.845-1.95 1.95s0.845 1.95 1.95 1.95zM16 23.15c3.055 0 5.59-1.885 6.63-4.55h-13.26c1.040 2.665 3.575 4.55 6.63 4.55z"></path>
</svg>
