<?xml version="1.0" encoding="utf-8"?>
<!-- Generated by IcoMoon.io -->
<!DOCTYPE svg PUBLIC "-//W3C//DTD SVG 1.1//EN" "http://www.w3.org/Graphics/SVG/1.1/DTD/svg11.dtd">
<svg version="1.1" xmlns="http://www.w3.org/2000/svg" xmlns:xlink="http://www.w3.org/1999/xlink" width="32" height="32" viewBox="0 0 32 32">
<path d="M16 11c-2.75 0-5 2.25-5 5s2.25 5 5 5c2.75 0 5-2.25 5-5s-2.25-5-5-5zM27.934 14.667c-0.6-5.533-5.067-10-10.6-10.6v-2.067h-2.667v2.067c-5.533 0.6-10 5.067-10.6 10.6h-2.066v2.667h2.066c0.6 5.533 5.067 10 10.6 10.6v2.066h2.667v-2.066c5.533-0.6 10-5.067 10.6-10.6h2.066v-2.667h-2.066zM16 25.333c-5.134 0-9.333-4.2-9.333-9.333s4.2-9.333 9.333-9.333c5.133 0 9.333 4.2 9.333 9.333s-4.2 9.333-9.333 9.333z"></path>
</svg>
