<?xml version="1.0" encoding="utf-8"?>
<!-- Generated by IcoMoon.io -->
<!DOCTYPE svg PUBLIC "-//W3C//DTD SVG 1.1//EN" "http://www.w3.org/Graphics/SVG/1.1/DTD/svg11.dtd">
<svg version="1.1" xmlns="http://www.w3.org/2000/svg" xmlns:xlink="http://www.w3.org/1999/xlink" width="32" height="32" viewBox="0 0 32 32">
<path d="M27.333 4c-0.136 0-0.275 0.086-0.573 0.2s-6.76 2.6-6.76 2.6l-8-2.8-7.533 2.533c-0.267 0.067-0.467 0.333-0.467 0.667v20.134c0 0.4 0.267 0.667 0.667 0.667 0.114 0 0.407-0.146 0.568-0.207s6.765-2.593 6.765-2.593l8 2.8 7.533-2.533c0.267-0.067 0.467-0.333 0.467-0.667v-20.134c0-0.4-0.267-0.667-0.667-0.667zM20 25.333l-8-2.8v-15.867l8 2.8v15.866z"></path>
</svg>
