<svg xmlns="http://www.w3.org/2000/svg" viewBox="0 0 32 32">  <path d="M22.997 22.166l-11.309-11.288v0.022l-6.931-6.928-1.512 1.503 8.442 8.431v1.801c0 2.362 1.945 4.295 4.307 4.295 0.538 0 1.059-0.101 1.535-0.284l2.024 2.017c-1.083 0.55-2.301 0.866-3.549 0.866-3.937 0-7.585-3.037-7.585-7.287h-2.434c0 4.813 3.889 8.919 8.577 9.563v5.124h2.875v-5.124c1.375-0.209 2.692-0.701 3.852-1.414l5.955 5.942 1.502-1.5-2.115-2.112-3.639-3.622 3.639 3.622-3.634-3.627z">  </path>  <path d="M20.313 15.705v-9.411c0-2.362-1.951-4.295-4.313-4.295s-4.313 1.933-4.313 4.295v1.578l8.569 8.56c0.042-0.237 0.056-0.48 0.056-0.727z">  </path>  <path d="M26.027 15.313h-2.434c0 1.281-0.344 2.48-0.933 3.512l1.723 1.72c1.033-1.507 1.644-3.299 1.644-5.232z">  </path>  <path d="M28.75 27.902l-2.119-2.109 2.116 2.112z">  </path></svg>