<?xml version="1.0" encoding="utf-8"?>
<!-- Generated by IcoMoon.io -->
<!DOCTYPE svg PUBLIC "-//W3C//DTD SVG 1.1//EN" "http://www.w3.org/Graphics/SVG/1.1/DTD/svg11.dtd">
<svg version="1.1" xmlns="http://www.w3.org/2000/svg" xmlns:xlink="http://www.w3.org/1999/xlink" width="32" height="32" viewBox="0 0 32 32">
<path d="M2 24h17v2h-17v-2z"></path>
<path d="M25 24h5v2h-5v-2z"></path>
<path d="M24 27.969c0 1.122-0.895 2.031-2 2.031v0c-1.105 0-2-0.909-2-2.031v-5.938c0-1.122 0.895-2.031 2-2.031v0c1.105 0 2 0.909 2 2.031v5.938z"></path>
<path d="M2 15h5v2h-5v-2z"></path>
<path d="M13 15h17v2h-17v-2z"></path>
<path d="M12 18.969c0 1.122-0.895 2.031-2 2.031v0c-1.105 0-2-0.909-2-2.031v-5.938c0-1.122 0.895-2.031 2-2.031v0c1.105 0 2 0.909 2 2.031v5.938z"></path>
<path d="M2 6h17v2h-17v-2z"></path>
<path d="M25 6h5v2h-5v-2z"></path>
<path d="M24 9.969c0 1.122-0.895 2.031-2 2.031v0c-1.105 0-2-0.909-2-2.031v-5.938c0-1.122 0.895-2.031 2-2.031v0c1.105 0 2 0.909 2 2.031v5.938z"></path>
</svg>
