<?xml version="1.0" encoding="utf-8"?>
<!-- Generated by IcoMoon.io -->
<!DOCTYPE svg PUBLIC "-//W3C//DTD SVG 1.1//EN" "http://www.w3.org/Graphics/SVG/1.1/DTD/svg11.dtd">
<svg version="1.1" xmlns="http://www.w3.org/2000/svg" xmlns:xlink="http://www.w3.org/1999/xlink" width="32" height="32" viewBox="0 0 32 32">
<path d="M16 9.5c-3.575 0-6.5 2.925-6.5 6.5s2.925 6.5 6.5 6.5 6.5-2.925 6.5-6.5-2.925-6.5-6.5-6.5zM16 3c-7.15 0-13 5.85-13 13s5.85 13 13 13 13-5.85 13-13-5.85-13-13-13zM16 26.4c-5.72 0-10.4-4.68-10.4-10.4s4.68-10.4 10.4-10.4 10.4 4.68 10.4 10.4-4.68 10.4-10.4 10.4z"></path>
</svg>
