<?xml version="1.0" encoding="utf-8"?>
<!-- Generated by IcoMoon.io -->
<!DOCTYPE svg PUBLIC "-//W3C//DTD SVG 1.1//EN" "http://www.w3.org/Graphics/SVG/1.1/DTD/svg11.dtd">
<svg version="1.1" xmlns="http://www.w3.org/2000/svg" xmlns:xlink="http://www.w3.org/1999/xlink" width="32" height="32" viewBox="0 0 32 32">
<path d="M10.303 17.496l3.865-3.766-9.56-9.249c-2.102 2.048-2.102 5.417 0 7.465l5.696 5.55z"></path>
<path d="M19.524 15.117c2.102 0.925 5.018 0.264 7.119-1.85 2.576-2.51 3.119-6.144 1.085-8.060-1.967-1.982-5.696-1.453-8.272 1.058-2.17 2.114-2.848 4.955-1.898 6.937-2.984 2.973-13.222 12.948-13.222 12.948l1.899 1.85 9.357-9.117 9.357 9.117 1.898-1.85-9.357-9.117 2.034-1.916z"></path>
</svg>
