<?xml version="1.0" encoding="utf-8"?>
<!-- Generated by IcoMoon.io -->
<!DOCTYPE svg PUBLIC "-//W3C//DTD SVG 1.1//EN" "http://www.w3.org/Graphics/SVG/1.1/DTD/svg11.dtd">
<svg version="1.1" xmlns="http://www.w3.org/2000/svg" xmlns:xlink="http://www.w3.org/1999/xlink" width="32" height="32" viewBox="0 0 32 32">
<path d="M23.989 21.527c-1.003 0-1.939 0.333-2.608 0.999l-9.56-5.526c0.067-0.333 0.134-0.6 0.134-0.932s-0.067-0.6-0.134-0.932l9.427-5.459c0.735 0.666 1.671 1.065 2.741 1.065 2.206 0 4.011-1.798 4.011-3.995s-1.805-3.995-4.011-3.995c-2.206 0-4.011 1.798-4.011 3.995 0 0.333 0.067 0.6 0.134 0.932l-9.426 5.459c-0.735-0.666-1.671-1.065-2.741-1.065-2.206 0-3.944 1.798-3.944 3.995s1.805 3.995 4.011 3.995c1.070 0 2.006-0.399 2.741-1.065l9.493 5.526c-0.067 0.266-0.134 0.533-0.134 0.865 0 2.131 1.738 3.862 3.877 3.862s3.877-1.731 3.877-3.862c0-2.131-1.738-3.862-3.877-3.862z"></path>
</svg>
