<?xml version="1.0" encoding="utf-8"?>
<!-- Generated by IcoMoon.io -->
<!DOCTYPE svg PUBLIC "-//W3C//DTD SVG 1.1//EN" "http://www.w3.org/Graphics/SVG/1.1/DTD/svg11.dtd">
<svg version="1.1" xmlns="http://www.w3.org/2000/svg" xmlns:xlink="http://www.w3.org/1999/xlink" width="32" height="32" viewBox="0 0 32 32">
<path d="M16 10c1.594 0 3.098 0.627 4.236 1.764s1.764 2.642 1.764 4.236-0.627 3.098-1.764 4.236c-1.138 1.138-2.642 1.764-4.236 1.764s-3.098-0.627-4.236-1.764c-1.138-1.138-1.764-2.642-1.764-4.236s0.627-3.098 1.764-4.236c1.138-1.138 2.642-1.764 4.236-1.764zM17.333 2h-2.667v4h2.667v-4zM25.4 4.733l-2.4 2.4 1.866 1.867 2.4-2.4-1.867-1.867zM6.6 4.733l-1.867 1.867 2.4 2.4 1.867-1.867-2.4-2.4zM16 8c-4.4 0-8 3.6-8 8s3.6 8 8 8 8-3.6 8-8-3.6-8-8-8v0zM30 14.667h-4v2.667h4v-2.667zM6 14.667h-4v2.667h4v-2.667zM24.866 23l-1.866 1.867 2.4 2.4 1.867-1.867-2.4-2.4zM7.133 23l-2.4 2.4 1.867 1.867 2.4-2.4-1.867-1.867zM17.333 26h-2.667v4c0.4 0 2.667 0 2.667 0v-4z"></path>
</svg>
