<svg  xmlns="http://www.w3.org/2000/svg"    viewBox="0 0 32 32">
<path d="M25.344 16c0 1.42-0.305 2.773-0.85 3.991l1.992 1.992c0.969-1.775 1.514-3.818 1.514-5.983 0-5.829-4-10.766-9.313-12v2.811c3.875 1.166 6.656 4.869 6.656 9.189z"></path>
<path d="M16 5.029l-3.189 3.28 3.189 3.189z"></path>
<path d="M26.303 24.805l-20.608-20.608-1.5 1.5 5.656 5.651-0.518 0.652h-5.333v8h5.333l6.667 6.971v-9.471l5.932 5.918c-0.945 0.797-2.057 1.408-3.245 1.771v2.811c1.938-0.448 3.687-1.385 5.145-2.676l2.476 2.481 1.5-1.503-1.5-1.502-0.005 0.005z"></path>
<path d="M22.012 16c0-2.4-1.324-4.525-3.324-5.554v3.739l3.175 3.175c0.097-0.439 0.149-0.894 0.149-1.36z"></path>
</svg>